<svg width="24" height="24" viewBox="0 0 24 24" fill="none" xmlns="http://www.w3.org/2000/svg">
<path d="M10 10H10.01M14 10H14.01M10 14C10.5869 14.4087 11.2849 14.6277 12 14.6277C12.7151 14.6277 13.4131 14.4087 14 14M5.00002 11C5.00002 9.14348 5.73752 7.36301 7.05027 6.05025C8.36302 4.7375 10.1435 4 12 4C13.8565 4 15.637 4.7375 16.9498 6.05025C18.2625 7.36301 19 9.14348 19 11V18C19.0473 18.3774 18.9725 18.76 18.7865 19.0918C18.6005 19.4235 18.3131 19.687 17.9665 19.8435C17.6198 20.0001 17.2322 20.0415 16.8603 19.9617C16.4884 19.8818 16.1519 19.685 15.9 19.4C15.7457 19.2026 15.5484 19.0429 15.3232 18.933C15.0979 18.8232 14.8506 18.7661 14.6 18.7661C14.3494 18.7661 14.1021 18.8232 13.8769 18.933C13.6516 19.0429 13.4543 19.2026 13.3 19.4C13.1457 19.5974 12.9484 19.7571 12.7232 19.867C12.4979 19.9768 12.2506 20.0339 12 20.0339C11.7494 20.0339 11.5021 19.9768 11.2769 19.867C11.0516 19.7571 10.8543 19.5974 10.7 19.4C10.5457 19.2026 10.3484 19.0429 10.1232 18.933C9.89792 18.8232 9.65062 18.7661 9.40002 18.7661C9.14942 18.7661 8.90211 18.8232 8.67686 18.933C8.45162 19.0429 8.25434 19.2026 8.10002 19.4C7.84816 19.685 7.51163 19.8818 7.13975 19.9617C6.76788 20.0415 6.38022 20.0001 6.03358 19.8435C5.68695 19.687 5.39957 19.4235 5.21357 19.0918C5.02757 18.76 4.95273 18.3774 5.00002 18V11Z" stroke="currentColor" stroke-width="2" stroke-linecap="round" stroke-linejoin="round"/>
</svg>
